<mxfile host="app.diagrams.net" modified="2023-07-18T12:02:17.529Z" agent="Mozilla/5.0 (Windows NT 10.0; Win64; x64) AppleWebKit/537.36 (KHTML, like Gecko) Chrome/114.0.0.0 Safari/537.36 Edg/114.0.1823.82" etag="sHT1HrPzwyrd6rX4jBfe" version="21.6.2" type="device">
  <diagram name="Page-1" id="bM0ME5krpxkb0L1tEzJx">
    <mxGraphModel dx="1635" dy="1142" grid="0" gridSize="10" guides="1" tooltips="1" connect="1" arrows="1" fold="1" page="0" pageScale="1" pageWidth="827" pageHeight="1169" math="0" shadow="0">
      <root>
        <mxCell id="0" />
        <mxCell id="1" parent="0" />
        <mxCell id="8paOQelJ4Q3C6zFcQ-Bx-2" value="Idle" style="ellipse;whiteSpace=wrap;html=1;fontSize=16;" vertex="1" parent="1">
          <mxGeometry x="2" y="-79" width="120" height="50" as="geometry" />
        </mxCell>
        <mxCell id="8paOQelJ4Q3C6zFcQ-Bx-14" style="edgeStyle=none;curved=1;rounded=0;orthogonalLoop=1;jettySize=auto;html=1;exitX=0;exitY=1;exitDx=0;exitDy=0;fontSize=12;startSize=8;endSize=8;" edge="1" parent="1" source="8paOQelJ4Q3C6zFcQ-Bx-4" target="8paOQelJ4Q3C6zFcQ-Bx-5">
          <mxGeometry relative="1" as="geometry" />
        </mxCell>
        <mxCell id="8paOQelJ4Q3C6zFcQ-Bx-15" value="ActivityStart" style="edgeLabel;html=1;align=center;verticalAlign=middle;resizable=0;points=[];fontSize=16;" vertex="1" connectable="0" parent="8paOQelJ4Q3C6zFcQ-Bx-14">
          <mxGeometry x="0.22" relative="1" as="geometry">
            <mxPoint x="-1" as="offset" />
          </mxGeometry>
        </mxCell>
        <mxCell id="8paOQelJ4Q3C6zFcQ-Bx-4" value="Requested" style="ellipse;whiteSpace=wrap;html=1;fontSize=16;" vertex="1" parent="1">
          <mxGeometry x="302" y="55" width="120" height="50" as="geometry" />
        </mxCell>
        <mxCell id="8paOQelJ4Q3C6zFcQ-Bx-16" style="edgeStyle=none;curved=1;rounded=0;orthogonalLoop=1;jettySize=auto;html=1;exitX=0;exitY=0;exitDx=0;exitDy=0;entryX=0.5;entryY=1;entryDx=0;entryDy=0;fontSize=12;startSize=8;endSize=8;" edge="1" parent="1" source="8paOQelJ4Q3C6zFcQ-Bx-5" target="8paOQelJ4Q3C6zFcQ-Bx-2">
          <mxGeometry relative="1" as="geometry" />
        </mxCell>
        <mxCell id="8paOQelJ4Q3C6zFcQ-Bx-17" value="ProcessResult" style="edgeLabel;html=1;align=center;verticalAlign=middle;resizable=0;points=[];fontSize=16;" vertex="1" connectable="0" parent="8paOQelJ4Q3C6zFcQ-Bx-16">
          <mxGeometry x="-0.4427" y="1" relative="1" as="geometry">
            <mxPoint x="-7" y="-53" as="offset" />
          </mxGeometry>
        </mxCell>
        <mxCell id="8paOQelJ4Q3C6zFcQ-Bx-5" value="Executing" style="ellipse;whiteSpace=wrap;html=1;fontSize=16;" vertex="1" parent="1">
          <mxGeometry x="106" y="220" width="120" height="50" as="geometry" />
        </mxCell>
        <mxCell id="8paOQelJ4Q3C6zFcQ-Bx-7" value="" style="endArrow=classic;html=1;rounded=0;fontSize=12;startSize=8;endSize=8;curved=1;entryX=0.442;entryY=0.92;entryDx=0;entryDy=0;exitX=0.5;exitY=0;exitDx=0;exitDy=0;entryPerimeter=0;" edge="1" parent="1" source="8paOQelJ4Q3C6zFcQ-Bx-9" target="8paOQelJ4Q3C6zFcQ-Bx-10">
          <mxGeometry width="50" height="50" relative="1" as="geometry">
            <mxPoint x="-98" y="82" as="sourcePoint" />
            <mxPoint x="178" y="175" as="targetPoint" />
          </mxGeometry>
        </mxCell>
        <mxCell id="8paOQelJ4Q3C6zFcQ-Bx-8" value="Booting" style="edgeLabel;html=1;align=center;verticalAlign=middle;resizable=0;points=[];fontSize=16;" vertex="1" connectable="0" parent="8paOQelJ4Q3C6zFcQ-Bx-7">
          <mxGeometry x="0.0503" y="6" relative="1" as="geometry">
            <mxPoint as="offset" />
          </mxGeometry>
        </mxCell>
        <mxCell id="8paOQelJ4Q3C6zFcQ-Bx-9" value="Offline" style="ellipse;whiteSpace=wrap;html=1;fontSize=16;" vertex="1" parent="1">
          <mxGeometry x="-130" y="220" width="120" height="50" as="geometry" />
        </mxCell>
        <mxCell id="8paOQelJ4Q3C6zFcQ-Bx-18" style="edgeStyle=none;curved=1;rounded=0;orthogonalLoop=1;jettySize=auto;html=1;exitX=0.5;exitY=0;exitDx=0;exitDy=0;entryX=0;entryY=1;entryDx=0;entryDy=0;fontSize=12;startSize=8;endSize=8;" edge="1" parent="1" source="8paOQelJ4Q3C6zFcQ-Bx-10" target="8paOQelJ4Q3C6zFcQ-Bx-2">
          <mxGeometry relative="1" as="geometry" />
        </mxCell>
        <mxCell id="8paOQelJ4Q3C6zFcQ-Bx-19" value="Booted and Setup" style="edgeLabel;html=1;align=center;verticalAlign=middle;resizable=0;points=[];fontSize=16;" vertex="1" connectable="0" parent="8paOQelJ4Q3C6zFcQ-Bx-18">
          <mxGeometry x="-0.1587" y="6" relative="1" as="geometry">
            <mxPoint as="offset" />
          </mxGeometry>
        </mxCell>
        <mxCell id="8paOQelJ4Q3C6zFcQ-Bx-10" value="StandBy" style="ellipse;whiteSpace=wrap;html=1;fontSize=16;" vertex="1" parent="1">
          <mxGeometry x="-123" y="55" width="120" height="50" as="geometry" />
        </mxCell>
        <mxCell id="8paOQelJ4Q3C6zFcQ-Bx-11" value="" style="endArrow=classic;html=1;rounded=0;fontSize=12;startSize=8;endSize=8;curved=1;exitX=1;exitY=0.5;exitDx=0;exitDy=0;entryX=0.5;entryY=0;entryDx=0;entryDy=0;" edge="1" parent="1" source="8paOQelJ4Q3C6zFcQ-Bx-2" target="8paOQelJ4Q3C6zFcQ-Bx-4">
          <mxGeometry width="50" height="50" relative="1" as="geometry">
            <mxPoint x="132" y="252" as="sourcePoint" />
            <mxPoint x="182" y="202" as="targetPoint" />
          </mxGeometry>
        </mxCell>
        <mxCell id="8paOQelJ4Q3C6zFcQ-Bx-13" value="ReadyToWork" style="edgeLabel;html=1;align=center;verticalAlign=middle;resizable=0;points=[];fontSize=16;" vertex="1" connectable="0" parent="8paOQelJ4Q3C6zFcQ-Bx-11">
          <mxGeometry x="-0.2819" y="3" relative="1" as="geometry">
            <mxPoint x="-1" as="offset" />
          </mxGeometry>
        </mxCell>
      </root>
    </mxGraphModel>
  </diagram>
</mxfile>
